<svg xmlns="http://www.w3.org/2000/svg" width="89" height="88" viewBox="0 0 89 88">
  <metadata><?xpacket begin="﻿" id="W5M0MpCehiHzreSzNTczkc9d"?>
<x:xmpmeta xmlns:x="adobe:ns:meta/" x:xmptk="Adobe XMP Core 7.1-c000 116.ccf84e0, 2022/05/19-10:59:47        ">
   <rdf:RDF xmlns:rdf="http://www.w3.org/1999/02/22-rdf-syntax-ns#">
      <rdf:Description rdf:about=""
            xmlns:xmp="http://ns.adobe.com/xap/1.0/">
         <xmp:CreatorTool>Adobe Photoshop CC 2019 (Windows)</xmp:CreatorTool>
      </rdf:Description>
   </rdf:RDF>
</x:xmpmeta>
                                                                                                    
                                                                                                    
                                                                                                    
                                                                                                    
                                                                                                    
                                                                                                    
                                                                                                    
                                                                                                    
                                                                                                    
                                                                                                    
                                                                                                    
                                                                                                    
                                                                                                    
                                                                                                    
                                                                                                    
                                                                                                    
                                                                                                    
                                                                                                    
                                                                                                    
                                                                                                    
                           
<?xpacket end="w"?></metadata>
<defs>
    <style>
      .cls-1 {
        fill: #d9d9d9;
        fill-rule: evenodd;
      }
    </style>
  </defs>
  <path id="Shape" class="cls-1" d="M63.035,3.057l-1.7,4.19,0.632-.326L57.443,5.084l0.224,0.674,1.7-4.19-0.95-.387-3.335,8.2,0.95,0.387,1.687-4.146-0.62.3,4.519,1.838-0.236-.646L59.7,11.255l0.95,0.387,3.335-8.2ZM73.576,9.779l-0.815-.613-3.348,4.449a2.836,2.836,0,0,1-1.555,1.214,1.921,1.921,0,0,1-1.55-.45,1.9,1.9,0,0,1-.854-1.36,2.846,2.846,0,0,1,.738-1.829l0.3-.4,0.35-.465,2.7-3.586-0.82-.617L66.074,9.638l-0.377.5-0.337.448a3.55,3.55,0,0,0-.893,2.523,2.96,2.96,0,0,0,1.284,2.006,2.969,2.969,0,0,0,2.288.682,3.55,3.55,0,0,0,2.178-1.556Zm3.816,3.745-6.91,5.53,1.807,2.258A3.756,3.756,0,0,0,73.5,22.359a1.992,1.992,0,0,0,1.237.205,2.658,2.658,0,0,0,1.226-.585,2.3,2.3,0,0,0,.8-1.034,1.843,1.843,0,0,0,.05-1.051,2.507,2.507,0,0,0-.438-0.917,2.091,2.091,0,0,0,.768.542,1.89,1.89,0,0,0,.99.122,2.481,2.481,0,0,0,1.8-1.475,1.786,1.786,0,0,0-.006-1.117,3.824,3.824,0,0,0-.7-1.23ZM77.763,14.5l-0.743,0,1.354,1.691a3.056,3.056,0,0,1,.487.82,1.233,1.233,0,0,1,.057.758,1.308,1.308,0,0,1-.487.674,1.322,1.322,0,0,1-1.226.3,2.51,2.51,0,0,1-1.236-.924l-1.136-1.419-0.054.489ZM71.515,18.9l-0.166.724,3.275-2.621-0.489-.054,1.17,1.461a3.963,3.963,0,0,1,.445.685,2.117,2.117,0,0,1,.221.7,1.332,1.332,0,0,1-.1.687,1.681,1.681,0,0,1-.521.64,1.414,1.414,0,0,1-1.267.338,2.324,2.324,0,0,1-1.214-.873Zm12.13,4.727-0.075-.065-6.017,6.773,0.69,1.551,8.087-3.6-0.4-.91-7.594,3.377,0.076,0.052,6.023-6.789-0.68-1.53-8.087,3.6,0.4,0.91Zm4.085,14.74,0.887-.153L87.8,33.453l-8.723,1.5,0.821,4.766,0.887-.153-0.725-4.21-0.5.554,3.968-.683-0.392-.188,0.576,3.347,0.887-.153-0.576-3.347-0.306.308,3.939-.678-0.652-.357Zm0.912,10.2,0.3-5.65-0.9-.047-0.136,2.6,0.6-.257-8.521-.445-0.053,1.019,8.521,0.445-0.569-.264-0.133,2.553ZM78.611,53.409l6.984,4.245,0.039-.113-8.114-.973L77,58.059l7.9,4.227,0.347-1-7.563-3.874-0.045.149,8.562,0.963,0.443-1.282-7.33-4.53-0.057.146,8.342,1.617,0.345-1-8.825-1.561ZM72.648,65.382a3.209,3.209,0,0,0,.066,1.433,4.193,4.193,0,0,0,.73,1.435A7.226,7.226,0,0,0,76.567,70.5a4.131,4.131,0,0,0,1.585.232,3.177,3.177,0,0,0,1.371-.4,3.506,3.506,0,0,0,1.659-2.3,3.175,3.175,0,0,0-.056-1.427,4.127,4.127,0,0,0-.723-1.43,7.227,7.227,0,0,0-3.124-2.249,4.194,4.194,0,0,0-1.593-.237,3.218,3.218,0,0,0-1.379.39A3.45,3.45,0,0,0,72.648,65.382Zm2.412-1.609a2.6,2.6,0,0,1,1.5-.016,5.52,5.52,0,0,1,1.831.923,5.446,5.446,0,0,1,1.448,1.439,2.539,2.539,0,0,1,.445,1.415,2.344,2.344,0,0,1-1.513,2.1,2.55,2.55,0,0,1-1.481.024,5.447,5.447,0,0,1-1.824-.918A5.548,5.548,0,0,1,74.011,67.3a2.605,2.605,0,0,1-.466-1.422A2.3,2.3,0,0,1,75.06,63.773ZM68.41,69.694l2.655,3.216-0.026-.484-1.68,1.386a1.682,1.682,0,0,1-.993.446,1.039,1.039,0,0,1-.845-0.439l-0.6-.731-0.6-.727a2.153,2.153,0,0,0-.323-0.325,1.132,1.132,0,0,0-.237-0.155l-0.8.657a0.679,0.679,0,0,1,.244.145,2.254,2.254,0,0,1,.325.327l0.644,0.78,0.64,0.775a1.527,1.527,0,0,0,.7.523,1.314,1.314,0,0,0,.7.029,1.751,1.751,0,0,0,.606-0.27,1.512,1.512,0,0,0-.34.677,2.217,2.217,0,0,0-.008,1,2.505,2.505,0,0,0,.56,1.1,2.256,2.256,0,0,0,1.61.951,2.675,2.675,0,0,0,1.8-.736l2.37-1.955-5.634-6.826Zm5.344,6.474-0.042-.541L72.059,76.99a1.95,1.95,0,0,1-1.184.526,1.42,1.42,0,0,1-1.078-.627,1.861,1.861,0,0,1-.417-0.85,1.618,1.618,0,0,1,.059-0.842,1.532,1.532,0,0,1,.483-0.683l1.689-1.394-0.493-.145ZM61.167,84.606l1.011-.488,1.231-5.758-0.278-.106,2.116,4.382,0.924-.446-3.848-7.969-0.924.446,1.524,3.155-0.192-.647-0.4,1.937,0.5-.17-4.67-2.716-1.043.5,5.482,3.21-0.323-.724Zm-8.358-2.393,0.165,0.627,4.039-1.062-0.165-.627ZM38.287,87.356l0.429-4.5-0.511.494,4.857,0.462-0.409-.581-0.429,4.5,1.022,0.1,0.839-8.81-1.021-.1-0.424,4.456,0.508-.464-4.857-.462L38.7,83l0.424-4.456-1.022-.1-0.839,8.81ZM26.241,83.937L27.2,84.291l1.935-5.221a2.835,2.835,0,0,1,1.143-1.608A2.262,2.262,0,0,1,33.1,78.508a2.846,2.846,0,0,1-.184,1.963l-0.173.467-0.2.546-1.56,4.208,0.962,0.356,1.528-4.124,0.218-.588,0.2-.526a3.549,3.549,0,0,0,.133-2.673,2.961,2.961,0,0,0-1.8-1.555,2.97,2.97,0,0,0-2.388,0A3.55,3.55,0,0,0,28.182,78.7Zm-4.772-2.531,5.059-7.262-2.373-1.653a3.758,3.758,0,0,0-1.455-.662,1.991,1.991,0,0,0-1.244.154,2.658,2.658,0,0,0-1.01.909,2.305,2.305,0,0,0-.472,1.218,1.844,1.844,0,0,0,.25,1.022,2.506,2.506,0,0,0,.68.755,2.093,2.093,0,0,0-.89-0.3,1.889,1.889,0,0,0-.984.163,2.481,2.481,0,0,0-1.313,1.926,1.786,1.786,0,0,0,.323,1.069,3.825,3.825,0,0,0,1.016.982Zm-0.631-.827,0.712-.214-1.778-1.238a3.057,3.057,0,0,1-.7-0.648,1.233,1.233,0,0,1-.269-0.71,1.515,1.515,0,0,1,1.367-1.417,2.51,2.51,0,0,1,1.447.536l1.492,1.039-0.087-.484Zm4.742-6-0.046-.742-2.4,3.441,0.485-.087-1.536-1.07a3.959,3.959,0,0,1-.621-0.531,2.114,2.114,0,0,1-.411-0.612,1.332,1.332,0,0,1-.1-0.687,1.679,1.679,0,0,1,.319-0.762,1.414,1.414,0,0,1,1.119-.683,2.324,2.324,0,0,1,1.412.493ZM14.049,61.815l-0.736.518,2.275,3.234,0.21-.713-6.98,4.908L9.408,70.6l7.24-5.091ZM12.4,58.728L3.969,59.785l0,0.011,6.8-5.089-0.4-.979L3.054,59.3l0.6,1.479,9.141-1.073ZM8.664,55.76L7.829,56.1l1.482,3.659,0.834-.338ZM0.15,46.477l0.139,1.01,5.517-.759a2.835,2.835,0,0,1,1.957.249,2.261,2.261,0,0,1,.41,2.981,2.847,2.847,0,0,1-1.818.765l-0.493.068-0.577.079-4.447.612L0.978,52.5l4.358-.6,0.621-.085,0.556-.076a3.551,3.551,0,0,0,2.42-1.144,3.421,3.421,0,0,0-.609-4.428,3.552,3.552,0,0,0-2.639-.449ZM0.776,40.1l0.031,0.094L9.457,37.5l0.21-1.685-8.783-1.1-0.123.988,8.247,1.028L8.97,36.652l-8.664,2.7L0.1,41.018l8.783,1.1,0.123-.988ZM9.712,26.545a2.447,2.447,0,0,1,.708.447,2.311,2.311,0,0,1,.516.67,2.054,2.054,0,0,1,.221.834,2.16,2.16,0,0,1-.179.945,2.122,2.122,0,0,1-.875,1.044,2.639,2.639,0,0,1-1.456.335,5.592,5.592,0,0,1-1.957-.472,5.567,5.567,0,0,1-1.719-1.043,2.619,2.619,0,0,1-.791-1.261A2.133,2.133,0,0,1,4.3,26.689a2.164,2.164,0,0,1,.658-0.91,2.065,2.065,0,0,1,.916-0.411,2.334,2.334,0,0,1,.994.037,2.678,2.678,0,0,1,.355.114l0.391-.948a2.959,2.959,0,0,0-.58-0.168,3.374,3.374,0,0,0-1.326.005,3.092,3.092,0,0,0-1.3.6,3.124,3.124,0,0,0-.963,1.329,3.116,3.116,0,0,0-.189,1.986,3.619,3.619,0,0,0,1.028,1.718,6.266,6.266,0,0,0,2.015,1.275,6.272,6.272,0,0,0,2.326.514,3.638,3.638,0,0,0,1.946-.493,3.105,3.105,0,0,0,1.268-1.541,3.224,3.224,0,0,0,.27-1.427,2.991,2.991,0,0,0-.33-1.223A3.343,3.343,0,0,0,11.04,26.2a3.277,3.277,0,0,0-.937-0.6Zm0.735-11.623,3.595,2.747-0.149-.695L10.93,20.85l0.71-.039L8.045,18.063l-0.623.815,7.032,5.374,0.623-.815L11.52,20.719,11.645,21.4l2.963-3.875-0.686.057L17.479,20.3l0.623-.815-7.032-5.374Zm10.738,1.709-5.909-6.589-0.751.673L20.433,17.3ZM20.2,6.906l-0.056.082,7.446,5.162,1.458-.871-4.539-7.6-0.855.511,4.262,7.134,0.042-.081L20.494,6.079l-1.437.858,4.539,7.6,0.855-.511ZM36.15,8.861a2.558,2.558,0,0,0,.588-0.5,2.19,2.19,0,0,0,.31-0.471,1.86,1.86,0,0,0,.12-0.313L37.48,8.513l0.735-.2L37.11,4.278l-2.981.816,0.227,0.827,2.089-.572,0.246,0.9a1.994,1.994,0,0,1-.12.789,1.96,1.96,0,0,1-.523.781,2.471,2.471,0,0,1-1.066.547,2.356,2.356,0,0,1-1.026.057A2.216,2.216,0,0,1,33,8a3.3,3.3,0,0,1-.824-0.941,5.8,5.8,0,0,1-.617-1.5,4.955,4.955,0,0,1-.188-2.036,2.708,2.708,0,0,1,.6-1.406,2.342,2.342,0,0,1,1.171-.731,2.226,2.226,0,0,1,.948-0.073,1.891,1.891,0,0,1,.754.288,1.956,1.956,0,0,1,.542.536,2.243,2.243,0,0,1,.31.665l0.01,0.035,0.01,0.035,0.961-.263-0.01-.035-0.01-.035a3.1,3.1,0,0,0-.417-0.884,3.075,3.075,0,0,0-.775-0.8A2.8,2.8,0,0,0,34.347.385a3.177,3.177,0,0,0-1.451.1A3.333,3.333,0,0,0,31.242,1.5a3.731,3.731,0,0,0-.859,1.85A5.609,5.609,0,0,0,30.56,5.83a5.668,5.668,0,0,0,1.108,2.228,3.729,3.729,0,0,0,1.655,1.158,3.176,3.176,0,0,0,1.879.045A3.4,3.4,0,0,0,36.15,8.861ZM50.032,4.1l0.059-.645-4.159-.383-0.059.645ZM53,44a9.381,9.381,0,0,0-5.444,2.445A10,10,0,0,0,45,52s-0.5,2-.5,2c-0.029,0-.5-2-0.5-2a10,10,0,0,0-2.556-5.555A9.381,9.381,0,0,0,36,44s-2.024-.5-2-0.5c0.015-.016,2-0.5,2-0.5a9.381,9.381,0,0,0,5.444-2.445A10,10,0,0,0,44,35s0.5-1.991.5-2,0.5,2,.5,2a10,10,0,0,0,2.556,5.555A9.381,9.381,0,0,0,53,43s2,0.484,2,.5S53,44,53,44Z"/>
</svg>
